<svg enable-background="new 0 0 140 140" height="512" viewBox="0 0 140 140" width="512" xmlns="http://www.w3.org/2000/svg"><circle cx="70" cy="70" fill="#4da0dc" r="64"/><path d="m133.9830322 70.6704102-28.8763504-28.8763428c-.0999756-.1199951-.2099609-.2300415-.3299561-.3300171-.3700562-.2999878-.8300171-.4799805-1.3400269-.4799805h-66.880001c-1.1799927 0-2.1500244.9599609-2.1500244 2.1499634v48.2999878h-5.8099994v3.1600342c0 1.2399902.5200195 2.3599854 1.3400269 3.1599731v.0100098l36.256897 36.1137085c1.2603129.0739746 2.5275248.1222534 3.8063945.1222534 35.1214599 0 63.6217117-28.2937622 63.9830398-63.3295898z" opacity=".1"/><path d="m103.4388962 40.9817963h-66.8778534c-1.1886482 0-2.1521759.9635963-2.1521759 2.1521759v51.5584335h71.1822662v-51.5584335c0-1.1885796-.9635925-2.1521759-2.1522369-2.1521759z" fill="#344d5b"/><path d="m50.29871 33.674919h39.402512v62.599823h-39.402512z" fill="#ededed" transform="matrix(0 1 -1 0 134.975 -5.025)"/><path d="m28.592062 91.4330826v3.1602707c0 2.4438782 1.9810467 4.4248505 4.4248486 4.4248505h73.9661102c2.4438019 0 4.4249191-1.9809723 4.4249191-4.4248505v-3.1602707z" fill="#293b44"/><path d="m101.005783 94.346832h4.569815v1.757621h-4.569815z" fill="#4abba4"/><path d="m93.694077 94.346832h4.569815v1.757621h-4.569815z" fill="#dd584d"/><path d="m86.382378 94.346832h4.569815v1.757621h-4.569815z" fill="#feda6f"/><path d="m56.9698296 54.2211838c-3.7554321 1.1133537-5.8980179 5.0616226-4.7830124 8.8226395 1.1133614 3.7554626 5.0633011 5.9035568 8.8187332 4.7902069 3.761013-1.1150055 5.9019203-5.0688171 4.7885628-8.8242836-1.1150055-3.7610169-5.0632668-5.9035683-8.8242836-4.7885628zm2.6362114 8.8921776c-1.1537933.3420563-2.3620644-.3136787-2.7041054-1.4674034-.3420753-1.1538582.3119621-2.3675957 1.4657555-2.7096558 1.1538277-.3420677 2.3692245.3174477 2.7113037 1.4713097.3420372 1.1537246-.31913 2.3636779-1.4729538 2.7057495z" fill="#cd5248"/><path d="m69.1231766 59.7204056-.9241791-3.1173477-2.4928894.2745247c-.3608932-.575592-.7862854-1.1043282-1.2684021-1.5602264l.7945786-2.3788185-2.8662262-1.5510559-1.5629883 1.9575119c-.6449547-.1556892-1.3148842-.2256851-1.9979362-.2079048l-1.1248741-2.2464218-3.1173134.9241714.2760887 2.4980583c-.5787888.3505707-1.1022835.7745094-1.5617638 1.2632256l-2.3773651-.789341-1.5525513 2.8610686 1.9523735 1.5644455c-.1557388.6450043-.2241936 1.3201447-.2012291 2.0016594l-2.241272 1.1232452.9241829 3.1173439 2.4913597-.2796707c.3521881.5839081.7759857 1.1073761 1.2596321 1.568428l-.7857742 2.3706055 2.8625717 1.5577469 1.5630226-1.9575272c.6500702.1541748 1.3199997.2241669 1.9994278.2130661l1.1269722 2.2345963 3.1173134-.9241714-.2781868-2.4862366c.5756989-.3609924 1.1043777-.7863312 1.5602646-1.2683792l2.3773346.7893448 1.5562134-2.8677521-1.9627075-1.5613785c.1608887-.6465302.2309341-1.3164101.213089-1.9994392zm-13.0239716-4.1582604.3126373 1.0545616c-1.6311493.9537086-2.606781 2.7594948-2.5158195 4.651989l-1.0596809.3141556c-.2227173-2.4690666 1.0713806-4.8616676 3.2628631-6.0207062zm3.4450684 11.6205254c-2.4706116.2175064-4.8581085-1.0780334-6.017086-3.2695312l1.0545311-.3126335c.9551964 1.6362801 2.7574196 2.6186714 4.6499176 2.527607zm-3.8257141-5.1839409c-.5352898-1.8055801.4909935-3.7048073 2.2965698-4.240097 1.8106956-.536808 3.7062798.4961929 4.2415695 2.3017693.5352898 1.8055801-.4909935 3.7048073-2.3016891 4.2416153-1.8055764.5352859-3.7011605-.4977113-4.2364502-2.3032876zm6.1611175 4.491581-.314167-1.0597076c1.6362991-.9552383 2.6134605-2.7558784 2.5224953-4.6483688l1.0545349-.3126297c.2227173 2.4690665-1.0729065 4.8565215-3.2628632 6.0207061zm1.5123367-8.0368347c-.9551964-1.6362801-2.755825-2.6134033-4.6432419-2.523983l-.314167-1.0597115c2.4639397-.2211266 4.8581123 1.0780373 6.017086 3.2695351z" fill="#e56353"/><path d="m71.2458878 67.8000793c-3.0143814.8936615-4.7374878 4.0688248-3.8438187 7.083252.8959427 3.0221024 4.071228 4.7452698 7.0856171 3.8516159 3.0221939-.8959732 4.7374344-4.0690079 3.8414917-7.0911102-.8936768-3.0144272-4.0610962-4.7397232-7.0832901-3.8437577zm-.9998856 6.2484665c-.4304962-1.4521179.3900986-2.9763641 1.842308-3.4068985 1.4522171-.4305267 2.9709702.4001923 3.401474 1.8523102.4282303 1.4444504-.3923645 2.9687042-1.8445816 3.399231-1.4522094.4305267-2.9709701-.4001847-3.3992004-1.8446427z" fill="#4288b9"/><path d="m81.0015106 72.2178345-.7423706-2.5040741-1.9997177.2256927c-.2926407-.4684601-.6308136-.8890152-1.0123062-1.2541962l.6367111-1.913826-2.3078995-1.2458038-1.2496643 1.5747299c-.5164108-.1287842-1.053421-.183075-1.6031799-.1651993l-.9031448-1.8075867-2.5041199.7423859.2202072 2.0100479c-.4651947.2744751-.8835144.6205368-1.2541504 1.0122986l-1.9060135-.6391907-1.2481308 2.3000412 1.5691071 1.2598801c-.1287231.5164413-.1830444 1.05336-.1651764 1.6032791l-1.7996521.9006882.742363 2.5040741 1.9997711-.2257004c.2847366.4707947.6229706.8915482 1.0146408 1.2620468l-.6312332 1.903656 2.3000336 1.2481384 1.2520523-1.5666885c.5218811.1184082 1.0588989.172699 1.6032333.1651917l.9085159 1.7972336 2.5041199-.7423859-.2255783-1.9996948c.4604263-.2903671.8889389-.6309052 1.254097-1.012291l1.9036331.6311417 1.2559891-2.3023682-1.5769196-1.2575684c.1287308-.5162354.182991-1.0533447.1651764-1.6032791zm-7.6853485 5.9933471c-1.9901657.1715698-3.9035034-.8667908-4.8341293-2.6232758l.8478012-.2513428c.7643051 1.3106232 2.2117538 2.1026459 3.7349701 2.0267639zm-2.7670364-9.3334503.2513046.8476562c-1.3105927.7642441-2.0924835 2.217186-2.0189209 3.7328033l-.8556595.2536697c-.177124-1.9800795.858841-3.9011458 2.6232758-4.8341292zm-.3031235 5.1708145c-.4304962-1.4521179.3900986-2.9763641 1.842308-3.4068985 1.4522171-.4305267 2.9709702.4001923 3.401474 1.8523102.4282303 1.4444504-.3923645 2.9687042-1.8445816 3.399231-1.4522094.4305267-2.9709701-.4001847-3.3992004-1.8446427zm4.9463043 3.6064301-.2536926-.8557129c1.3105927-.7642441 2.0948181-2.2093277 2.0213089-3.7247467l.8478012-.2513428c.1770706 1.9798813-.8611679 3.8932801-2.6154175 4.8318024zm1.2114334-6.4565048c-.7643661-1.3108139-2.2094879-2.0949783-3.7271729-2.0292892l-.251297-.8476639c1.9799805-.1770935 3.8955841.8689346 4.8262711 2.6256104z" fill="#4da0dc"/><path d="m83.5195236 57.150341-.6139603-2.0709305-1.6538162.1866531c-.2420197-.3874245-.5217056-.7352371-.837204-1.0372505l.5265732-1.5827827-1.9086838-1.0303116-1.0335083 1.3023415c-.4270782-.1065063-.8712006-.1514091-1.3258667-.1366272l-.7469254-1.494915-2.0709686.6139679.1821136 1.6623611c-.3847198.2269974-.73069.5131989-1.0372086.8371964l-1.5763245-.5286217-1.032234 1.9021874 1.2976913 1.041954c-.1064606.4271088-.1513824.8711548-.1366043 1.3259506l-1.4883575.7448921.6139526 2.0709305 1.6538544-.1866646c.2354889.3893661.515213.7373352.8391342 1.0437508l-.5220413 1.5743713 1.9021912 1.0322342 1.0354767-1.2956848c.4316101.0979271.8757324.1428261 1.3259125.1366158l.7513657 1.4863548 2.0709686-.6139679-.1865616-1.653801c.3807831-.240139.7351761-.5217705 1.0371704-.8371849l1.5743484.5219688 1.0387344-1.9041176-1.3041458-1.0400391c.1064606-.4269409.1513367-.8711433.1366043-1.3259506zm-8.8950729 1.5140457c-.3560333-1.2009354.3226166-2.4615326 1.5236359-2.8175888 1.2010117-.35606 2.4570694.3309669 2.8131027 1.5319023.3541565 1.1945992-.324501 2.4551926-1.5255127 2.8112526-1.2010193.3560563-2.4570694-.3309669-2.8112259-1.5255661z" fill="#4abba4"/></svg>