<svg enable-background="new 0 0 140 140" height="512" viewBox="0 0 140 140" width="512" xmlns="http://www.w3.org/2000/svg"><circle cx="70" cy="70" fill="#dbd8dd" r="64"/><path d="m103.9575043 124.248291c21.6293945-13.5390625 32.371582-37.8857422 29.6208496-61.6518555l-25.5231934-25.5229492c-.1500244-.1801758-.3100586-.3500977-.4899902-.4902344-.6999512-.6098633-1.6101074-.9697266-2.6000977-.9697266h-69.9299316c-2.2099609 0-4 1.7900391-4 4v59.5898438c0 1.1000977.4399414 2.0898438 1.1500244 2.8100586l.0198975.0200195 31.6651611 31.6601562c13.5615234 1.3154298 27.6452637-1.6572264 40.0872803-9.4453124z" opacity=".1"/><path d="m31.0318604 45.8771858v53.3229027c0 2.2094727 1.7907715 4 4 4h69.9362793c2.2092285 0 4-1.7905273 4-4v-53.3229027z" fill="#ededed"/><path d="m37.031914 53.520435h65.936523v20.825382h-65.936523z" fill="#4da0dc"/><circle cx="45.649" cy="88.773" fill="#344d5b" r="8.427"/><circle cx="70" cy="88.773" fill="#fed35b" r="8.427"/><circle cx="94.541" cy="88.773" fill="#dd584d" r="8.427"/><g fill="#ededed"><path d="m51.920887 57.869736h36.158581v1.899911h-36.158581z"/><path d="m51.920887 62.98317h36.158581v1.899911h-36.158581z"/><path d="m60.417664 68.096603h19.165024v1.899911h-19.165024z"/></g><path d="m108.9681396 39.6170769c0-2.2089844-1.7907715-4-4-4h-69.9362792c-2.2092285 0-4 1.7910156-4 4v7.9033203h77.9362793v-7.9033203z" fill="#467082"/><g fill="#ededed"><circle cx="38.881" cy="41.569" r="1.986"/><circle cx="45.743" cy="41.569" r="1.986"/><circle cx="52.605" cy="41.569" r="1.986"/></g></svg>