<?xml version="1.0" encoding="iso-8859-1"?>
<!-- Generator: Adobe Illustrator 19.0.0, SVG Export Plug-In . SVG Version: 6.00 Build 0)  -->
<svg version="1.1" id="Capa_1" xmlns="http://www.w3.org/2000/svg" xmlns:xlink="http://www.w3.org/1999/xlink" x="0px" y="0px"
	 viewBox="0 0 155.301 155.301" style="enable-background:new 0 0 155.301 155.301;" xml:space="preserve">
<g>
	<circle style="fill:#98E2ED;" cx="77.65" cy="77.65" r="77.65"/>
	<g>
		<g>
			<path style="fill:#3B6272;" d="M53.044,84.809c-4.534-5.506-7.257-12.558-7.257-20.247c0-11.7,6.308-21.922,15.704-27.467
				c-3.577-1.531-7.74-2.525-12.398-2.314c-17.627,0.797-22.516,26.667-13.95,47.074c3.604,8.582,10.477,10.164,17.234,9.116
				c-0.002-0.121-0.009-0.24-0.009-0.362C52.369,88.611,52.607,86.672,53.044,84.809z"/>
			<path style="fill:#85A0B0;" d="M109.743,31.432c-9.949-0.602-17.58,1.282-22.066,2.867c-2.708-0.895-5.574-1.441-8.549-1.577
				c0.789-0.706,1.703-1.279,2.656-1.893c0.484-0.313,0.303-1.378-0.335-1.261c-1.577,0.295-2.876,1.625-3.758,2.625
				c-0.009,0-0.018,0-0.027,0c-0.274,0-0.546,0.258-0.819,0.268c0.48-1.512,1.03-2.808,1.887-4.198
				c0.273-0.441-0.297-0.918-0.699-0.55c-1.442,1.324-2.206,3.1-2.332,5.007c-0.11,0.007-0.221,0.032-0.331,0.041
				c-0.479-2.365-0.183-4.469,0.431-6.881c0.194-0.763-0.765-1.284-1.249-0.614c-1.603,2.225-1.806,5.16-0.841,7.671
				c-2.094,0.26-4.124,0.721-6.073,1.366c-4.483-1.586-12.12-3.474-22.078-2.871c-17.651,1.071-22.808,30.017-14.442,52.725
				C35.518,96.102,44.962,97.374,52.927,95.9c-0.339-1.593-0.526-3.242-0.549-4.93c-6.757,1.048-13.631-0.534-17.234-9.116
				c-8.566-20.407-3.677-46.277,13.95-47.074c4.658-0.211,8.821,0.783,12.398,2.314c-9.396,5.545-15.704,15.767-15.704,27.467
				c0,7.689,2.723,14.741,7.257,20.247c1.813,2.202,3.92,4.149,6.254,5.798l-0.012,0.002c0,0,7.43,9.021,10.965,18.56
				c0.969,2.612,2.36,4.782,4.036,6.504c2.469,2.537,5.556,4.088,8.814,4.653c4.154,0.721,8.582-0.18,12.378-2.748
				c1.775-1.2,3.413-2.758,4.815-4.693c0.523-0.723,1.008-1.505,1.461-2.331c1.19-2.169,2.131-4.682,2.715-7.57
				c0,0,0.15-1.684-3.359-2.887c-0.238-0.081-0.493-0.161-0.767-0.237c-5.501-1.72-6.17,0.722-6.17,0.722s-3.916,7.988-8.73,8.046
				c-4.813,0.058-4.069-9.57,4.155-14.155c0.976-0.544,1.888-1.085,2.747-1.619c3.15-1.638,5.991-3.785,8.415-6.336
				c0.739-0.693,1.113-1.104,1.113-1.104l-0.124,0.016c0.178-0.205,0.36-0.407,0.533-0.619c4.534-5.505,7.257-12.557,7.257-20.246
				c0-11.704-6.312-21.93-15.715-27.474c3.574-1.527,7.732-2.517,12.383-2.308c17.627,0.797,22.516,26.667,13.949,47.074
				c-3.598,8.572-10.459,10.16-17.208,9.119c-0.024,1.688-0.211,3.337-0.55,4.93c7.96,1.469,17.39,0.186,21.786-11.747
				C132.55,61.448,127.393,32.503,109.743,31.432z M64.966,61.939c3.583,0.128,6.384,3.137,6.254,6.721
				c-0.128,3.582-3.135,6.383-6.717,6.257c-3.585-0.129-6.385-3.138-6.257-6.721C58.375,64.613,61.382,61.813,64.966,61.939z
				 M95.937,100.763c0.156-0.489,1.959-0.355,4.027,0.302c2.068,0.658,3.618,1.588,3.462,2.078c-0.156,0.49-1.959,0.356-4.027-0.302
				C97.331,102.185,95.781,101.254,95.937,100.763z M96.218,68.196c0.128,3.583-2.671,6.592-6.257,6.721
				c-3.583,0.126-6.59-2.675-6.718-6.257c-0.129-3.584,2.672-6.593,6.254-6.721C93.081,61.813,96.089,64.613,96.218,68.196z"/>
			<path style="fill:#3B6272;" d="M102.949,90.974c6.749,1.041,13.61-0.547,17.208-9.119c8.567-20.407,3.678-46.277-13.949-47.074
				c-4.651-0.21-8.81,0.78-12.383,2.308c9.403,5.544,15.715,15.77,15.715,27.474c0,7.689-2.723,14.741-7.257,20.246
				c0.438,1.864,0.676,3.804,0.676,5.801C102.958,90.73,102.951,90.852,102.949,90.974z"/>
			<path style="fill:#6C90A3;" d="M102.22,113.811c0.729,0.235,1.476,0.352,2.233,0.352c1.451,0,2.937-0.434,4.401-1.283
				c-0.515-0.379-0.953-1.033-1.27-2.048c-0.037-0.121-0.06-0.232-0.087-0.346c-1.557,0.913-3.047,1.155-4.432,0.707
				c-0.446-0.145-0.884-0.359-1.31-0.64c-0.453,0.826-0.938,1.608-1.461,2.331C100.91,113.281,101.552,113.595,102.22,113.811z"/>
			<path style="fill:#85A0B0;" d="M108.854,112.879c2.59,1.902,7.196-3.32,8.807-6.741c0,0-11.507-1.355-10.164,4.348
				c0.027,0.113,0.05,0.225,0.087,0.346C107.902,111.846,108.339,112.5,108.854,112.879z"/>
			<path style="fill:#FFD6BC;" d="M65.565,121.595c-2.744,0-5.05,1.427-6.432,3.575c-0.778,1.21-1.135,2.647-1.135,4.193v0.83h15
				v-0.83c0-1.546-0.289-2.983-1.067-4.193C70.548,123.021,68.309,121.595,65.565,121.595z"/>
			<path style="fill:#59839A;" d="M82.998,120.325v4.638c2-2.033,3.554-3.368,6.21-3.368c2.405,0,5.79,1.094,5.79,2.809v-6.827
				C90.998,120.146,86.998,121.046,82.998,120.325z"/>
			<path style="fill:#FFD6BC;" d="M89.501,121.595c-2.656,0-5.366,1.335-6.767,3.368c-0.862,1.252-1.736,2.766-1.736,4.4v0.83h17
				v-0.83c0-1.886-1.037-3.613-2.154-4.959C94.419,122.688,91.906,121.595,89.501,121.595z"/>
			<path style="fill:#59839A;" d="M102.958,90.608c0-1.997-0.239-3.937-0.676-5.801c-0.173,0.212-0.355,0.414-0.533,0.619
				l0.124-0.016c0,0-0.374,0.411-1.113,1.104c-2.424,2.551-5.265,4.698-8.415,6.336c-0.858,0.534-1.77,1.075-2.747,1.619
				c-8.224,4.585-8.968,14.213-4.155,14.155c4.814-0.058,8.73-8.046,8.73-8.046s0.669-2.441,6.17-0.722
				c0.274,0.076,0.529,0.156,0.767,0.237c0.544-1.344,0.979-2.744,1.287-4.192c0.339-1.593,0.526-3.241,0.55-4.93
				C102.951,90.852,102.958,90.73,102.958,90.608z"/>
			<path style="fill:#59839A;" d="M70.251,109.168c-3.536-9.538-10.965-18.56-10.965-18.56l0.012-0.002
				c-2.334-1.648-4.441-3.596-6.254-5.798c-0.437,1.863-0.676,3.803-0.676,5.8c0,0.122,0.007,0.241,0.009,0.362
				c0.023,1.688,0.693,3.337,1.032,4.93c0.957,4.496,2.588,8.548,6.588,11.812v17.458c0-2.148,3.256-3.575,6-3.575
				c2.744,0,4,1.427,6,3.575v-9.889c1,0.162,1.499,0.292,2.239,0.391C72.562,113.95,71.22,111.78,70.251,109.168z"/>
			<path style="fill:#FFFFFF;" d="M83.243,68.66c0.127,3.582,3.135,6.383,6.718,6.257c3.586-0.129,6.386-3.138,6.257-6.721
				c-0.128-3.583-3.137-6.384-6.721-6.257C85.915,62.067,83.114,65.076,83.243,68.66z M91.904,68.647
				c-0.014,0.414-0.146,0.792-0.348,1.122c-0.373-1.026-1.266-1.895-2.62-1.941c-0.714-0.026-1.258,0.184-1.646,0.529
				c0.11-1.218,1.145-2.151,2.38-2.108C90.949,66.295,91.95,67.368,91.904,68.647z"/>
			<path style="fill:#353A42;" d="M87.291,68.357c0.388-0.346,0.933-0.556,1.646-0.529c1.354,0.047,2.246,0.915,2.62,1.941
				c0.202-0.33,0.334-0.708,0.348-1.122c0.045-1.279-0.955-2.353-2.233-2.398C88.435,66.206,87.401,67.14,87.291,68.357z"/>
			<path style="fill:#FFFFFF;" d="M64.503,74.917c3.583,0.126,6.59-2.675,6.717-6.257c0.129-3.584-2.672-6.593-6.254-6.721
				c-3.584-0.127-6.591,2.674-6.72,6.257C58.118,71.779,60.918,74.788,64.503,74.917z M64.792,66.249
				c1.236-0.043,2.27,0.891,2.381,2.108c-0.389-0.346-0.933-0.556-1.646-0.529c-1.354,0.047-2.247,0.915-2.621,1.941
				c-0.202-0.33-0.333-0.708-0.348-1.122C62.514,67.368,63.515,66.295,64.792,66.249z"/>
			<path style="fill:#353A42;" d="M65.527,67.828c0.714-0.026,1.258,0.184,1.646,0.529c-0.111-1.218-1.146-2.151-2.381-2.108
				c-1.277,0.046-2.278,1.119-2.233,2.398c0.015,0.414,0.146,0.792,0.348,1.122C63.28,68.743,64.173,67.875,65.527,67.828z"/>
			
				<ellipse transform="matrix(-0.303 0.953 -0.953 -0.303 227.0481 37.8554)" style="fill:#516C7A;" cx="99.681" cy="101.953" rx="0.932" ry="3.929"/>
		</g>
		<path style="opacity:0.3;fill:#FFFFFF;" d="M109.743,31.432c-9.949-0.602-17.58,1.282-22.066,2.867
			c-2.708-0.895-5.574-1.441-8.549-1.577c0.789-0.706,1.703-1.279,2.656-1.893c0.484-0.313,0.303-1.133-0.335-1.014
			c-1.577,0.293-2.877,1.493-3.758,2.869h-0.027c-0.175,0-0.348,0.007-0.521,0.012V118c1.836,1.183,3.861,1.961,5.959,2.325v4.638
			c-0.862,1.252-1.375,2.766-1.375,4.4v0.973h15.817v-0.973c0-1.886-0.946-3.613-2.063-4.959v-6.827
			c1.775-1.2,3.413-2.758,4.815-4.693c0.616,0.398,1.258,0.711,1.926,0.927c0.729,0.235,1.476,0.352,2.233,0.352
			c1.451,0,2.937-0.434,4.401-1.283c2.59,1.902,7.196-3.32,8.807-6.741c0,0-11.507-1.355-10.164,4.348
			c-1.557,0.913-3.046,1.155-4.432,0.707c-0.446-0.145-0.884-0.359-1.31-0.64c1.19-2.169,2.131-4.682,2.715-7.57
			c0,0,0.15-1.684-3.359-2.887c0.544-1.344,0.979-2.744,1.287-4.192c7.96,1.469,17.39,0.186,21.786-11.747
			C132.55,61.448,127.393,32.503,109.743,31.432z"/>
	</g>
</g>
<g>
</g>
<g>
</g>
<g>
</g>
<g>
</g>
<g>
</g>
<g>
</g>
<g>
</g>
<g>
</g>
<g>
</g>
<g>
</g>
<g>
</g>
<g>
</g>
<g>
</g>
<g>
</g>
<g>
</g>
</svg>
