<svg enable-background="new 0 0 140 140" height="512" viewBox="0 0 140 140" width="512" xmlns="http://www.w3.org/2000/svg"><circle cx="70" cy="70" fill="#dbd8dd" r="64"/><path d="m133.9653168 68.7690582c.0099487.3500977.0299683.7001953.0299683 1.0400391v.380127c-.0999756 35.2399902-28.6900101 63.7897949-63.9599686 63.8098145h-.0700073c-1.1199951 0-2.2300415-.0297852-3.3300171-.0898438l-35.3099957-35.3100586v-14.1000977c0-4.9399414 3.9999981-8.9399414 8.9400005-8.9399414.9099731 0 1.789978.1401367 2.6099854.3999023l-2.4799805-2.4897461c-.4400024-.3601074-.7200317-.9001465-.7200317-1.5102539v-36.8298378c0-1.0900879.8800049-1.9699707 1.9700317-1.9699707h56.7099609c1.0900269 0 1.9700317.8798828 1.9700317 1.9699707z" opacity=".1"/><path d="m98.3568192 33.1602707h-56.7136841c-1.0862427 0-1.9667969.8806152-1.9667969 1.9667969v36.8330078c0 1.0861816.8805542 1.9667969 1.9667969 1.9667969h56.7136841c1.0863037 0 1.9669189-.8806152 1.9669189-1.9667969v-36.8330078c0-1.0861817-.8806152-1.9667969-1.9669189-1.9667969z" fill="#344d5b"/><path d="m49.1959229 84.4994888v14.0998535h-17.8700581v-14.0998535c0-4.9401855 4.0000019-8.9401855 8.9400043-8.9401855 2.1500244 0 4.1200562.7602539 5.6600342 2.0200195 2 1.6401367 3.2700196 4.130127 3.2700196 6.920166z" fill="#41a38e"/><path d="m40.2658691 75.5593033c-4.9400024 0-8.9400043 4-8.9400043 8.9401855v10.8200684c2.6500263-1.1601562 5.5000019-3.1601562 8.080019-5.8400879 3.8099976-3.9499512 6.1400146-8.4099121 6.5200195-11.9001465-1.539978-1.2597656-3.5100097-2.0200195-5.6600342-2.0200195z" fill="#4abba4"/><path d="m69.0219955 84.4994888v14.0998535h-17.87006v-14.0998535c0-4.9401855 4-8.9401855 8.9400024-8.9401855 2.1500244 0 4.12006.7602539 5.660038 2.0200195 2.0000001 1.6401367 3.2700196 4.130127 3.2700196 6.920166z" fill="#41a38e"/><path d="m60.091938 75.5593033c-4.9400024 0-8.9400024 4-8.9400024 8.9401855v10.8200684c2.6500244-1.1601562 5.5-3.1601562 8.0800171-5.8400879 3.8099976-3.9499512 6.1400185-8.4099121 6.5200233-11.9001465-1.539978-1.2597656-3.5100136-2.0200195-5.660038-2.0200195z" fill="#4abba4"/><path d="m88.8480606 84.4994888v14.0998535h-17.8700561v-14.0998535c0-4.9401855 4-8.9401855 8.9400024-8.9401855 2.1500244 0 4.1200562.7602539 5.6600342 2.0200195 2 1.6401367 3.2700195 4.130127 3.2700195 6.920166z" fill="#41a38e"/><path d="m79.9180069 75.5593033c-4.9400024 0-8.9400024 4-8.9400024 8.9401855v10.8200684c2.6500244-1.1601562 5.5-3.1601562 8.0800171-5.8400879 3.8099976-3.9499512 6.1400146-8.4099121 6.5200195-11.9001465-1.5399781-1.2597656-3.5100098-2.0200195-5.6600342-2.0200195z" fill="#4abba4"/><path d="m108.6741333 84.4994888v14.0998535h-17.8700562v-14.0998535c0-4.9401855 4-8.9401855 8.9400024-8.9401855 2.1500244 0 4.1200562.7602539 5.6600342 2.0200195 2.0000001 1.6401367 3.2700196 4.130127 3.2700196 6.920166z" fill="#41a38e"/><path d="m99.7440796 75.5593033c-4.9400024 0-8.9400024 4-8.9400024 8.9401855v10.8200684c2.6500244-1.1601562 5.5-3.1601562 8.0800171-5.8400879 3.8099976-3.9499512 6.1400146-8.4099121 6.5200195-11.9001465-1.5399781-1.2597656-3.5100098-2.0200195-5.6600342-2.0200195z" fill="#4abba4"/><path d="m59.1089554 92.7397232v14.0998535h-17.8700562v-14.0998535c0-4.9401855 4-8.9401855 8.9400024-8.9401855 2.1500244 0 4.1200562.7602539 5.6600342 2.0200195 2.0000001 1.6401367 3.2700196 4.1301269 3.2700196 6.920166z" fill="#41a38e"/><path d="m50.1789017 83.7995377c-4.9400024 0-8.9400024 4-8.9400024 8.9401855v10.8200684c2.6500244-1.1601562 5.5-3.1601562 8.0800171-5.8400879 3.8099976-3.9499512 6.1400146-8.4099121 6.5200195-11.9001465-1.5399781-1.2597656-3.5100098-2.0200195-5.6600342-2.0200195z" fill="#4abba4"/><path d="m78.9350281 92.7397232v14.0998535h-17.8700562v-14.0998535c0-4.9401855 4-8.9401855 8.9400024-8.9401855 2.1500244 0 4.1200562.7602539 5.6600342 2.0200195 2 1.6401367 3.2700196 4.1301269 3.2700196 6.920166z" fill="#41a38e"/><path d="m70.0049744 83.7995377c-4.9400024 0-8.9400024 4-8.9400024 8.9401855v10.8200684c2.6500244-1.1601562 5.5-3.1601562 8.0800171-5.8400879 3.8099976-3.9499512 6.1400146-8.4099121 6.5200195-11.9001465-1.5399781-1.2597656-3.5100098-2.0200195-5.6600342-2.0200195z" fill="#4abba4"/><path d="m98.7611008 92.7397232v14.0998535h-17.8700562v-14.0998535c0-4.9401855 4-8.9401855 8.9400024-8.9401855 2.1500244 0 4.1200562.7602539 5.6600342 2.0200195 2 1.6401367 3.2700196 4.1301269 3.2700196 6.920166z" fill="#41a38e"/><path d="m89.8310471 83.7995377c-4.9400024 0-8.9400024 4-8.9400024 8.9401855v10.8200684c2.6500244-1.1601562 5.5-3.1601562 8.0800171-5.8400879 3.8099976-3.9499512 6.1400146-8.4099121 6.5200195-11.9001465-1.5399781-1.2597656-3.5100098-2.0200195-5.6600342-2.0200195z" fill="#4abba4"/><path d="m70 44.349453c-5.0778809 0-9.1943359 4.1164551-9.1943359 9.1940918 0 5.078125 4.1164551 9.1943359 9.1943359 9.1943359s9.1943359-4.1162109 9.1943359-9.1943359c0-5.0776367-4.116455-9.1940918-9.1943359-9.1940918z" fill="#ededed"/><path d="m74.0124283 52.3755531-4.4165039-3.1230469c-.9477539-.6699219-2.256958.0078125-2.256958 1.168457v6.2456055c0 1.1606445 1.3092041 1.8381348 2.256958 1.1679688l4.4165039-3.1225586c.8061523-.5700683.8061523-1.7666016 0-2.3364258z" fill="#dd584d"/></svg>