<?xml version="1.0" encoding="iso-8859-1"?>
<!-- Generator: Adobe Illustrator 19.0.0, SVG Export Plug-In . SVG Version: 6.00 Build 0)  -->
<svg version="1.1" id="Layer_1" xmlns="http://www.w3.org/2000/svg" xmlns:xlink="http://www.w3.org/1999/xlink" x="0px" y="0px"
	 viewBox="0 0 512 512" style="enable-background:new 0 0 512 512;" xml:space="preserve">
<path style="fill:#57555C;" d="M100,123H0V97.743L67.118,0H100V123z"/>
<path style="fill:#8B8992;" d="M422,512h-34.242L70,192.185V0h54.259L422,300.832V512z"/>
<g>
	<polygon style="fill:#AEADB3;" points="422,421.268 422,300.832 124.259,0 70,0 70,65.614 	"/>
	<polygon style="fill:#AEADB3;" points="176.128,299 387.758,512 422,512 422,300.832 420.187,299 	"/>
</g>
<path style="fill:#D8D7DA;" d="M214.935,338.241L80.84,202.96L266.565,17H512v25.229L214.935,338.241z"/>
<polygon style="fill:#C7C5CA;" points="512,17 401.292,17 147.79,270.502 214.935,338.241 512,42.229 "/>
<polygon style="fill:#57555C;" points="421.924,300.755 420.187,299 176.128,299 299.504,423.175 "/>
<g>
</g>
<g>
</g>
<g>
</g>
<g>
</g>
<g>
</g>
<g>
</g>
<g>
</g>
<g>
</g>
<g>
</g>
<g>
</g>
<g>
</g>
<g>
</g>
<g>
</g>
<g>
</g>
<g>
</g>
</svg>
