<?xml version="1.0" encoding="iso-8859-1"?>
<!-- Generator: Adobe Illustrator 19.0.0, SVG Export Plug-In . SVG Version: 6.00 Build 0)  -->
<svg version="1.1" id="Capa_1" xmlns="http://www.w3.org/2000/svg" xmlns:xlink="http://www.w3.org/1999/xlink" x="0px" y="0px"
	 viewBox="0 0 512 512" style="enable-background:new 0 0 512 512;" xml:space="preserve">
<path style="fill:#A8E83A;" d="M410.455,7.048l92.686,94.281c1.519,1.545,0.529,4.161-1.633,4.312l-203.935,14.29L410.455,7.048z"/>
<path style="fill:#77DD00;" d="M216.118,201.384L76.802,509.007c-0.967,2.136,1.752,4.018,3.41,2.36l316.491-316.491L410.455,7.048
	L216.118,201.384z"/>
<path style="fill:#74BC04;" d="M358.275,59.228l-8.73,119.239L76.801,509.007c-0.967,2.136,1.752,4.018,3.41,2.36l316.491-316.491
	L410.455,7.048L358.275,59.228z"/>
<path style="fill:#A8E83A;" d="M9.245,0.001l174.048,5.652L384.61,206.969l-85.52,85.52L8.446,1.845
	C7.754,1.152,8.266-0.031,9.245,0.001z"/>
<polygon style="fill:#73CC00;" points="183.294,5.652 234.733,356.845 384.61,206.969 "/>
<path style="fill:#6CB504;" d="M183.294,5.652l11.677,79.726l100.326,100.326c20.012,20.012,20.012,52.458,0,72.47l-65.433,65.433
	l4.868,33.237L384.61,206.968L183.294,5.652z"/>
<g>
</g>
<g>
</g>
<g>
</g>
<g>
</g>
<g>
</g>
<g>
</g>
<g>
</g>
<g>
</g>
<g>
</g>
<g>
</g>
<g>
</g>
<g>
</g>
<g>
</g>
<g>
</g>
<g>
</g>
</svg>
