<?xml version="1.0" encoding="iso-8859-1"?>
<!-- Generator: Adobe Illustrator 19.0.0, SVG Export Plug-In . SVG Version: 6.00 Build 0)  -->
<svg version="1.1" id="Capa_1" xmlns="http://www.w3.org/2000/svg" xmlns:xlink="http://www.w3.org/1999/xlink" x="0px" y="0px"
	 viewBox="0 0 512 512" style="enable-background:new 0 0 512 512;" xml:space="preserve">
<path style="fill:#A8E83A;" d="M405.981,14.277l89.997,91.546c1.475,1.5,0.513,4.04-1.586,4.187l-198.019,13.875L405.981,14.277z"/>
<path style="fill:#77DD00;" d="M217.282,202.976L82.007,501.674c-0.939,2.074,1.701,3.901,3.311,2.291l307.309-307.309
	L405.98,14.277L217.282,202.976z"/>
<path style="fill:#74BC04;" d="M355.314,64.944l-8.477,115.78l-264.83,320.95c-0.939,2.074,1.702,3.901,3.311,2.291l307.309-307.309
	L405.98,14.277L355.314,64.944z"/>
<path style="fill:#A8E83A;" d="M16.41,7.435l168.999,5.488l195.476,195.476l-83.039,83.039L15.635,9.225
	C14.962,8.552,15.46,7.404,16.41,7.435z"/>
<polygon style="fill:#73CC00;" points="185.409,12.922 235.356,353.927 380.885,208.398 "/>
<path style="fill:#6CB504;" d="M185.409,12.922l11.339,77.414l97.416,97.416c19.432,19.432,19.432,50.936,0,70.368l-63.535,63.535
	l4.727,32.273l145.529-145.529L185.409,12.922z"/>
<path d="M501.279,100.612L411.282,9.066c-0.052-0.053-0.112-0.094-0.165-0.145c-0.125-0.12-0.257-0.232-0.391-0.343
	c-0.153-0.127-0.308-0.25-0.469-0.364c-0.134-0.095-0.272-0.183-0.414-0.269c-0.18-0.11-0.362-0.211-0.55-0.305
	c-0.076-0.038-0.143-0.087-0.221-0.122c-0.07-0.032-0.143-0.049-0.213-0.078c-0.194-0.082-0.391-0.152-0.59-0.217
	c-0.154-0.05-0.308-0.099-0.464-0.139c-0.195-0.049-0.392-0.085-0.59-0.119c-0.162-0.027-0.324-0.057-0.487-0.074
	c-0.197-0.02-0.395-0.023-0.594-0.028c-0.164-0.003-0.327-0.012-0.49-0.004c-0.197,0.009-0.394,0.036-0.591,0.061
	c-0.165,0.021-0.329,0.035-0.492,0.066c-0.185,0.036-0.368,0.092-0.552,0.142c-0.171,0.047-0.343,0.087-0.511,0.147
	c-0.027,0.009-0.054,0.013-0.081,0.023c-0.153,0.056-0.292,0.133-0.439,0.199c-0.163,0.072-0.328,0.136-0.486,0.219
	c-0.196,0.104-0.377,0.228-0.562,0.348c-0.121,0.079-0.248,0.147-0.366,0.234c-0.296,0.219-0.575,0.456-0.834,0.714
	c-0.002,0.002-0.005,0.004-0.008,0.007l-104.35,104.354l-22.741-22.741c-2.904-2.902-7.61-2.902-10.513,0
	c-2.903,2.904-2.903,7.61,0,10.513l107.255,107.254L240.567,338.204L196.016,34.041l34.394,34.395c2.904,2.902,7.61,2.902,10.513,0
	c2.903-2.904,2.903-7.61,0-10.513L190.666,7.666c-0.024-0.024-0.053-0.042-0.077-0.066c-0.248-0.241-0.51-0.468-0.789-0.672
	c-0.038-0.028-0.077-0.052-0.115-0.079c-0.29-0.204-0.591-0.392-0.908-0.554c-0.009-0.004-0.018-0.008-0.027-0.012
	c-0.313-0.158-0.641-0.29-0.977-0.403c-0.033-0.011-0.065-0.024-0.098-0.035c-0.32-0.102-0.649-0.18-0.986-0.238
	c-0.059-0.01-0.118-0.021-0.178-0.03c-0.283-0.042-0.569-0.075-0.86-0.084L16.653,0.005c-3.508-0.118-6.666,1.891-8.06,5.105
	C7.2,8.325,7.9,12.004,10.378,14.482l195.549,195.549L75.236,498.606c-1.892,4.175-0.529,9.098,3.24,11.707
	c1.635,1.132,3.519,1.687,5.393,1.687c2.444,0,4.87-0.944,6.706-2.778l77.917-77.917c2.903-2.904,2.903-7.61,0-10.513
	c-2.904-2.902-7.61-2.902-10.513,0l-56.992,56.993L210.55,235.859l16.911,115.452l-36.568,36.567c-2.903,2.904-2.903,7.61,0,10.513
	c2.904,2.902,7.61,2.901,10.513,0l39.207-39.207l145.528-145.528l0,0l0.001-0.001l11.741-11.742
	c1.261-1.261,2.027-2.934,2.156-4.713l5.382-73.504l89.49-6.27c3.84-0.269,7.202-2.769,8.565-6.37
	C504.84,107.456,503.976,103.357,501.279,100.612z M32.311,15.388l146.645,4.763l7.961,54.351l16.387,111.879L32.311,15.388z
	 M394.092,74.845l-3.027,41.343c0,0.002,0,0.004,0,0.007l-5.65,77.161l-4.53,4.531l-74.001-74.001l90.223-90.223L394.092,74.845z
	 M406.52,108.716l1.17-15.985l4.505-61.528l70.926,72.146L406.52,108.716z"/>
<g>
</g>
<g>
</g>
<g>
</g>
<g>
</g>
<g>
</g>
<g>
</g>
<g>
</g>
<g>
</g>
<g>
</g>
<g>
</g>
<g>
</g>
<g>
</g>
<g>
</g>
<g>
</g>
<g>
</g>
</svg>
