<svg enable-background="new 0 0 140 140" height="512" viewBox="0 0 140 140" width="512" xmlns="http://www.w3.org/2000/svg"><circle cx="70" cy="70" fill="#dbd8dd" r="64"/><path d="m109.3008194 50.4389572c-.5599976-.6298828-1.3499756-1.0299072-2.2399902-1.0599365l-12.5200196-12.5198975c-.6900024-.8100586-1.7199707-1.3200684-2.8599854-1.3200684h-20.0599975c-1.7799683 0-3.3099976 1.2399902-3.6799927 2.9799805l-3.3599853 10.8500977h-10.3600464l-2.5199585-2.5200195h-13.1500244v2.5200195h-5.5c-1.7499981 0-3.1799908 1.4299316-3.1799908 3.1799316v48.7399902c0 .8399658.3300171 1.5899658.8699951 2.1599731h-.0100097l.0400391.0400391c.0199585.0299683.0499878.0499878.0700073.0700073l29.7458477 29.745842c3.072876.453064 6.2145386.6950684 9.4133301.6950684 33.6917114 0 61.2825394-26.0396042 63.7936478-59.0880661l-24.4828568-24.4828491z" opacity=".1"/><path d="m38.554749 46.847012h13.145561v3.082177h-13.145561z" fill="#e56353"/><path d="m98.7824478 49.5724602-3.4262161-11.0516205c-.36409-1.7388382-1.8973465-2.9842911-3.6738892-2.9842911h-20.0660019c-1.7765656 0-3.3098221 1.245472-3.6739044 2.9843254l-3.4261322 11.0515862z" fill="#3a556a"/><path d="m74.278076 38.609257h14.742478v8.237758h-14.742478z" fill="#ededed"/><path d="m106.9479218 104.4634552h-73.8958359c-1.754343 0-3.1765194-1.4221802-3.1765194-3.1765213v-48.7369652c0-1.7543449 1.4221764-3.1765175 3.1765194-3.1765175h73.8958359c1.7543411 0 3.1765137 1.4221725 3.1765137 3.1765175v48.7369652c-.0000001 1.7543411-1.4221726 3.1765213-3.1765137 3.1765213z" fill="#3a556a"/><path d="m110.1244354 62.0317535v-9.2548904c0-1.8796692-1.5237427-3.4034119-3.4034119-3.4034119h-73.4420432c-1.8796692 0-3.4034138 1.5237427-3.4034138 3.4034119l-.0000057 9.2548904z" fill="#2f4859"/><circle cx="81.649" cy="76.918" fill="#ebf0f3" r="17.683"/><path d="m81.6498108 92.1721802c-8.4108353 0-14.9486694-6.8484726-15.254303-15.2537689-.2889862-7.9461899 6.6819611-14.994091 15.2543335-15.2537422 8.4069366-.2546387 15.2532425 6.8429146 15.2532425 15.2537498s-6.8424454 15.2537613-15.253273 15.2537613z" fill="#344d5b" opacity=".82"/><path d="m81.64785 86.0008774c-5.0087585 0-8.9021149-4.0783463-9.0841293-9.0838013-.1720886-4.7320557 3.9791946-8.9291687 9.0841446-9.0837936 5.0064316-.1516418 9.0834961 4.0750427 9.0834961 9.0837936s-4.0747604 9.0838013-9.0835114 9.0838013z" fill="#27a2db" opacity=".82"/><path d="m37.7940254 68.6034241-7.9184361-3.3869934v33.474617l7.6835804-2.5180588c1.1788254-.3863831 1.9760017-1.4864426 1.9760017-2.7269897v-22.2041092c.0000001-1.1486969-.6850013-2.1866837-1.741146-2.6384659z" fill="#2f4859"/><g fill="#3a556a"><circle cx="34.705" cy="73.597" r="1.82"/><circle cx="34.705" cy="79.168" r="1.82"/><circle cx="34.705" cy="84.739" r="1.82"/><circle cx="34.705" cy="90.311" r="1.82"/></g><g fill="#ededed"><circle cx="77.708" cy="68.629" r="2.237"/><circle cx="81.191" cy="72.112" r="1.246"/></g></svg>