<svg enable-background="new 0 0 140 140" height="512" viewBox="0 0 140 140" width="512" xmlns="http://www.w3.org/2000/svg"><circle cx="70" cy="70.452" fill="#e6e9ef" r="64"/><path d="m96.8971024 36.1791191-.0100098.0300293c-.8400269-1.539917-2.4500122-2.5899658-4.3200073-2.5899658h-28.4699707l-8.3500328-8.3499775h-1.3999634v5.0200195c0 1.1799316.4499512 2.2399921 1.1599731 3.0699482l-.0200195.0100098.1300049.1199951c.0800171.0900879.1699829.1800537.2600098.2600098l13.3499718 13.3500977v3.829834h-2.2999878c-.4500122 0-.8200073.3701172-.8200073.8200684v2.3699951h-4.6499596c-1.8599854-1.4300537-4.0400391-2.5100098-6.4700317-3.0799561-9.0499878-2.0900879-18.0799561 3.5500488-20.1799927 12.5999756-.3900146 1.6800499-.5100098 3.3699913-.3900146 5.010006l-2.0899658 26.7399902c-.2200317 2.7299805.9500122 5.289917 2.9400024 6.9500732l32.0513268 32.0451736c.8903198.0368652 1.7822266.0678711 2.6815796.0678711 34.4229736 0 62.4870071-27.1792068 63.9304276-61.2468338z" opacity=".1"/><path d="m70.6289368 57.5845566h-1.405014v-11.4809418c0-2.1967125 1.7871399-3.9838562 3.9838562-3.9838562h19.3560333c1.9565964 0 3.5482178-1.592308 3.5482178-3.5489044s-1.5916214-3.5482178-3.5482178-3.5482178h-33.490593c-2.6083374 0-4.7302704-2.121933-4.7302704-4.7302685v-5.0225258h1.4050179v5.0225258c0 1.8337955 1.4914589 3.3252544 3.3252525 3.3252544h33.490593c2.7311401 0 4.9532318 2.2220955 4.9532318 4.9532318 0 2.7318268-2.2220917 4.9539223-4.9532318 4.9539223h-19.3560334c-1.4221725 0-2.5788422 1.1566696-2.5788422 2.5788383v11.4809419z" fill="#3a556a"/><path d="m72.9276581 50.9320107h-6.0021973c-.4521484 0-.8186188.3664322-.8186188.8186226v4.2475548h7.6394348v-4.2475548c.0000001-.4521905-.3665161-.8186226-.8186187-.8186226z" fill="#64798a"/><path d="m56.458702 54.119396h32.36853v23.293793h-32.36853z" fill="#4d5c7d"/><path d="m107.6741333 95.3901291-2.0929489-26.7440414c.1188126-1.6401596-.0021057-3.3254242-.3922043-5.0113792-2.0934601-9.0482292-11.1255722-14.6861343-20.1737976-12.5926743-9.0481873 2.0934639-14.686142 11.1255722-12.5926361 20.1738014 1.5718155 6.7935486 7.055191 11.6640244 13.5199051 12.7837372l5.9494171 15.0420227c1.4907684 3.7691193 5.5139923 5.8810196 9.4628143 4.9673843h.0000458c3.948822-.9136429 6.6356277-4.5780563 6.3194046-8.6188507z" fill="#64798a"/><path d="m32.3258476 95.3901291 2.0929489-26.7440414c-.1188126-1.6401596.0021019-3.3254242.3922005-5.0113792 2.0934639-9.0482292 11.1255722-14.6861343 20.1738014-12.5926743 9.0481834 2.0934639 14.6861382 11.1255722 12.5926323 20.1738014-1.5718155 6.7935486-7.0551872 11.6640244-13.5199051 12.7837372l-5.9494133 15.0420227c-1.4907722 3.7691193-5.5139923 5.8810196-9.4628143 4.9673843h-.0000458c-3.948822-.9136429-6.6356277-4.5780563-6.3194046-8.6188507z" fill="#64798a"/><circle cx="88.932" cy="67.203" fill="#3a556a" r="12.148"/><circle cx="50.828" cy="67.203" fill="#3a556a" r="12.148"/><circle cx="84.157" cy="66.858" fill="#e6e9ef" r="2.364"/><circle cx="94.45" cy="66.858" fill="#44c4a1" r="2.364"/><circle cx="89.304" cy="61.711" fill="#fcd462" r="2.364"/><circle cx="89.304" cy="72.005" fill="#e56353" r="2.364"/><path d="m55.6284294 65.6747665h-3.2719994v-3.2720032c0-.8440895-.6842842-1.5284195-1.5284615-1.5284195-.8441353 0-1.5284615.68433-1.5284615 1.5284195v3.2720032h-3.2719994c-.8440933 0-1.5284195.6843262-1.5284195 1.5284195 0 .8441772.6843262 1.5285034 1.5284195 1.5285034h3.2719994v3.2719955c0 .8440933.6843262 1.5284195 1.5284615 1.5284195.8441772 0 1.5284615-.6843262 1.5284615-1.5284195v-3.2719955h3.2719994c.8440933 0 1.5284195-.6843262 1.5284195-1.5285034 0-.8440933-.6843262-1.5284195-1.5284195-1.5284195z" fill="#e6e9ef"/></svg>