<?xml version="1.0" encoding="iso-8859-1"?>
<!-- Generator: Adobe Illustrator 19.0.0, SVG Export Plug-In . SVG Version: 6.00 Build 0)  -->
<svg version="1.1" id="Capa_1" xmlns="http://www.w3.org/2000/svg" xmlns:xlink="http://www.w3.org/1999/xlink" x="0px" y="0px"
	 viewBox="0 0 491.52 491.52" style="enable-background:new 0 0 491.52 491.52;" xml:space="preserve">
<circle style="fill:#EA8953;" cx="245.76" cy="245.76" r="245.76"/>
<path style="fill:#44C4A1;" d="M307.221,198.15c1.286-5.036,1.973-10.312,1.973-15.749s-0.687-10.713-1.973-15.749l9.774-8.666
	c1.575-1.396,1.95-3.708,0.898-5.531l-10.133-17.549c-1.052-1.823-3.242-2.654-5.238-1.989l-12.42,4.141
	c-7.511-7.346-16.838-12.834-27.246-15.741l-2.622-12.814c-0.421-2.062-2.236-3.543-4.341-3.543h-20.266
	c-2.104,0-3.919,1.481-4.341,3.543l-2.622,12.814c-10.408,2.907-19.734,8.395-27.246,15.741l-12.419-4.141
	c-1.997-0.666-4.187,0.165-5.239,1.989l-10.133,17.55c-1.053,1.823-0.677,4.134,0.898,5.531l9.774,8.666
	c-1.287,5.036-1.973,10.312-1.973,15.749s0.687,10.713,1.973,15.749l-9.774,8.666c-1.574,1.397-1.95,3.709-0.898,5.532
	l10.133,17.549c1.052,1.823,3.242,2.654,5.239,1.989l12.419-4.141c7.512,7.346,16.838,12.834,27.246,15.741l2.622,12.814
	c0.422,2.062,2.237,3.543,4.341,3.543h20.266c2.104,0,3.919-1.481,4.341-3.543l2.622-12.814
	c10.408-2.907,19.734-8.395,27.246-15.741l12.42,4.14c1.996,0.666,4.186-0.165,5.238-1.988l10.133-17.549
	c1.052-1.823,0.677-4.135-0.898-5.532L307.221,198.15z M245.76,227.288c-24.79,0-44.887-20.097-44.887-44.887
	s20.097-44.887,44.887-44.887c24.79,0,44.887,20.097,44.887,44.887S270.55,227.288,245.76,227.288z"/>
<g>
	<path style="fill:#3EA69B;" d="M245.76,230.157c-26.332,0-47.756-21.423-47.756-47.757s21.424-47.756,47.756-47.756
		c26.333,0,47.757,21.423,47.757,47.756S272.093,230.157,245.76,230.157z M245.76,139.962c-23.4,0-42.438,19.038-42.438,42.438
		s19.038,42.438,42.438,42.438s42.439-19.038,42.439-42.438S269.161,139.962,245.76,139.962z"/>
	<circle style="fill:#3EA69B;" cx="245.76" cy="182.4" r="22.717"/>
</g>
<path style="fill:#3A556A;" d="M373.274,184.711v177.613H118.246V184.711c0-3.686,2.97-6.656,6.656-6.656h241.715
	C370.304,178.055,373.274,181.025,373.274,184.711z"/>
<rect x="104.96" y="362.291" style="fill:#EBF0F3;" width="281.6" height="18.396"/>
<g>
	<polygon style="fill:#D5D6DB;" points="386.149,380.726 105.371,380.726 124.558,386.56 366.962,386.56 	"/>
	<rect x="226.099" y="369.357" style="fill:#D5D6DB;" width="39.373" height="4.306"/>
</g>
<rect x="133.734" y="192.287" style="fill:#64798A;" width="224" height="155.802"/>
<g>
	<path style="fill:#FFFFFF;" d="M196.125,285.332l-5.56,12.635H180.55l24.48-55.555h10.015l24.475,55.555h-10.01l-5.565-12.635
		H196.125z M220.13,276.667l-10.095-22.89l-10.095,22.89H220.13z"/>
	<path style="fill:#FFFFFF;" d="M284.74,247.262c3.87,3.23,5.805,8.21,5.805,14.94c0,6.73-1.975,11.655-5.92,14.785
		c-3.95,3.125-10.005,4.685-18.16,4.685h-9.855v16.295h-9.38v-55.555h19.075C274.73,242.413,280.875,244.033,284.74,247.262z
		 M278.105,270.192c1.88-1.99,2.82-4.9,2.82-8.745c0-3.84-1.19-6.555-3.575-8.145c-2.385-1.59-6.12-2.385-11.205-2.385h-9.535
		v22.255h10.885C272.69,273.172,276.225,272.177,278.105,270.192z"/>
	<path style="fill:#FFFFFF;" d="M301.59,242.413h9.38v55.555h-9.38V242.413z"/>
</g>
<g>
	<rect x="154.982" y="214.333" style="fill:#FCD462;" width="19.63" height="10.849"/>
	<rect x="186.547" y="214.333" style="fill:#FCD462;" width="147.942" height="10.849"/>
	<rect x="316.882" y="315.192" style="fill:#FCD462;" width="19.63" height="10.849"/>
	<rect x="155.008" y="315.192" style="fill:#FCD462;" width="147.942" height="10.849"/>
</g>
<g>
</g>
<g>
</g>
<g>
</g>
<g>
</g>
<g>
</g>
<g>
</g>
<g>
</g>
<g>
</g>
<g>
</g>
<g>
</g>
<g>
</g>
<g>
</g>
<g>
</g>
<g>
</g>
<g>
</g>
</svg>
